<?xml version="1.0" encoding="UTF-8"?>
<!DOCTYPE svg PUBLIC "-//W3C//DTD SVG 1.1//EN" "http://www.w3.org/Graphics/SVG/1.1/DTD/svg11.dtd">
<svg version="1.1" xmlns="http://www.w3.org/2000/svg" xmlns:xlink="http://www.w3.org/1999/xlink" x="0px" y="0px" width="488" height="200" viewBox="0, 0, 488, 200">
  <g id="Layer 1">
    <path d="M127,14.205 C151.477,34.606 142.962,94.021 120.312,116.672 C106.457,130.526 87.9,146.461 66.204,143.433 C47.801,140.865 48.419,117.956 54.991,104.746 C60.072,94.536 51.789,96.119 51.978,85.316 C52.297,67.056 76.971,50.034 92.357,44.354 C100.101,41.495 108.782,40.839 105.428,44.194 C102.434,47.188 89.258,52.582 84.69,55.944 C75.284,62.865 49.052,79.114 63.072,93.134 C69.966,86.885 89.657,82.56 91.435,89.977 C94.636,103.334 65.721,104.237 65.721,104.237 C58.851,108.433 54.884,126.513 61.454,132.411 C71.651,141.564 87.082,132.342 96.198,126.254 C125.34,106.792 135.145,82.073 132.823,48.587 C130.427,14.007 102.193,8.483 72.796,21.321 C27.162,41.25 -6.898,112.223 18.798,158.636 C36.359,190.355 70.408,188.312 99.198,173.739 C114.837,165.823 160.155,132.251 159.496,130.805 C161.943,136.174 137.702,155.916 134.544,158.648 C118.622,172.426 100.001,184.759 79.34,189.881 C46.159,198.107 13.607,182.124 4.72,146.425 C-3.17,114.727 9.464,73.826 28.315,48.411 C41.105,31.169 59.319,15.374 80.598,10.171 C94.037,6.884 115.419,4.552 127,14.205 z M81.236,90.941 C77.905,91.343 77.25,91.284 73.959,92.259 C72.074,92.818 69.441,93.785 67.779,94.959 C67.171,95.388 66.65,95.944 66.201,96.538 C65.746,97.14 66.017,98.082 66.515,98.54 C66.762,98.768 67.076,98.922 67.392,99.04 C69.468,99.811 72.669,99.26 74.653,98.863 C77.061,98.382 79.942,97.502 82.189,96.483 C82.938,96.143 86.945,94.37 86.508,92.645 C86.474,92.51 86.432,92.37 86.347,92.261 C86.17,92.032 85.988,91.785 85.734,91.648 C85.252,91.386 84.702,91.275 84.185,91.089 z" fill="#315180"/>
    <path d="M177.233,73.153 L177.233,91 L171.073,91 L171.073,73.153 L161.395,73.153 L161.395,68.189 L186.928,68.189 L186.928,73.153 z" fill="#315180"/>
    <path d="M216.429,89.871 Q213.623,90.801 210.826,91.208 Q208.029,91.614 205.107,91.614 Q201.371,91.614 198.458,90.809 Q195.544,90.004 193.552,88.477 Q191.56,86.949 190.514,84.741 Q189.468,82.533 189.468,79.744 Q189.468,77.154 190.522,74.938 Q191.576,72.722 193.51,71.086 Q195.445,69.451 198.184,68.53 Q200.923,67.608 204.293,67.608 Q207.398,67.608 209.979,68.447 Q212.561,69.285 214.412,70.929 Q216.263,72.572 217.284,74.979 Q218.305,77.387 218.305,80.524 L218.305,82.052 L195.826,82.052 Q196.125,83.131 196.814,84.027 Q197.503,84.924 198.682,85.555 Q199.861,86.186 201.579,86.534 Q203.297,86.883 205.688,86.883 Q207.381,86.883 209.008,86.675 Q210.635,86.468 212.046,86.127 Q213.457,85.787 214.594,85.372 Q215.732,84.957 216.429,84.542 z M212.179,77.536 Q212.096,76.689 211.673,75.785 Q211.249,74.88 210.336,74.149 Q209.423,73.419 207.946,72.946 Q206.468,72.473 204.26,72.473 Q202.185,72.473 200.674,72.987 Q199.163,73.502 198.142,74.266 Q197.121,75.029 196.557,75.909 Q195.992,76.789 195.826,77.536 z" fill="#315180"/>
    <path d="M249.034,89.439 Q247.839,89.938 246.627,90.336 Q245.415,90.734 244.12,91.025 Q242.825,91.315 241.389,91.465 Q239.953,91.614 238.31,91.614 Q234.823,91.614 231.893,90.867 Q228.963,90.12 226.846,88.618 Q224.73,87.115 223.551,84.866 Q222.372,82.616 222.372,79.611 Q222.372,76.606 223.551,74.357 Q224.73,72.107 226.846,70.605 Q228.963,69.103 231.893,68.355 Q234.823,67.608 238.31,67.608 Q239.953,67.608 241.389,67.758 Q242.825,67.907 244.12,68.198 Q245.415,68.488 246.627,68.887 Q247.839,69.285 249.034,69.783 L249.034,75.328 Q248.088,74.813 247.042,74.307 Q245.996,73.801 244.735,73.394 Q243.473,72.987 241.962,72.73 Q240.451,72.473 238.559,72.473 Q235.654,72.473 233.736,73.07 Q231.819,73.668 230.673,74.664 Q229.528,75.66 229.063,76.947 Q228.598,78.233 228.598,79.611 Q228.598,80.524 228.797,81.413 Q228.996,82.301 229.461,83.089 Q229.926,83.878 230.673,84.542 Q231.42,85.206 232.532,85.688 Q233.645,86.169 235.131,86.443 Q236.616,86.717 238.559,86.717 Q240.451,86.717 241.962,86.476 Q243.473,86.235 244.735,85.837 Q245.996,85.438 247.042,84.932 Q248.088,84.426 249.034,83.895 z" fill="#315180"/>
    <path d="M276.61,91 L276.61,81.487 L260.938,81.487 L260.938,91 L254.779,91 L254.779,68.189 L260.938,68.189 L260.938,76.49 L276.61,76.49 L276.61,68.189 L282.769,68.189 L282.769,91 z" fill="#315180"/>
    <path d="M311.639,91 L311.639,78.217 Q311.639,76.938 311.423,75.901 Q311.207,74.863 310.618,74.125 Q310.029,73.386 308.974,72.979 Q307.92,72.572 306.26,72.572 Q304.998,72.572 303.612,72.913 Q302.226,73.253 300.864,73.817 Q299.503,74.382 298.266,75.129 Q297.03,75.876 296.067,76.689 L296.067,91 L289.907,91 L289.907,68.189 L296.067,68.189 L296.067,71.311 Q297.229,70.646 298.54,69.991 Q299.852,69.335 301.329,68.804 Q302.807,68.272 304.467,67.94 Q306.127,67.608 307.97,67.608 Q310.278,67.608 312.095,68.165 Q313.913,68.721 315.175,69.742 Q316.437,70.763 317.109,72.215 Q317.781,73.668 317.781,75.461 L317.781,91 z" fill="#315180"/>
    <path d="M354.338,79.611 Q354.338,82.55 353.259,84.799 Q352.18,87.049 350.171,88.56 Q348.162,90.07 345.299,90.842 Q342.435,91.614 338.865,91.614 Q335.296,91.614 332.416,90.842 Q329.535,90.07 327.51,88.56 Q325.485,87.049 324.389,84.799 Q323.293,82.55 323.293,79.611 Q323.293,76.673 324.389,74.423 Q325.485,72.174 327.51,70.663 Q329.535,69.152 332.416,68.38 Q335.296,67.608 338.865,67.608 Q342.435,67.608 345.299,68.38 Q348.162,69.152 350.171,70.663 Q352.18,72.174 353.259,74.423 Q354.338,76.673 354.338,79.611 z M348.113,79.611 Q348.113,78.333 347.706,77.063 Q347.299,75.793 346.261,74.78 Q345.224,73.768 343.431,73.137 Q341.638,72.506 338.865,72.506 Q337.006,72.506 335.595,72.796 Q334.184,73.087 333.155,73.602 Q332.125,74.116 331.428,74.805 Q330.731,75.494 330.316,76.283 Q329.901,77.071 329.726,77.926 Q329.552,78.781 329.552,79.611 Q329.552,80.458 329.726,81.321 Q329.901,82.185 330.316,82.973 Q330.731,83.762 331.428,84.442 Q332.125,85.123 333.155,85.629 Q334.184,86.136 335.595,86.426 Q337.006,86.717 338.865,86.717 Q341.638,86.717 343.431,86.086 Q345.224,85.455 346.261,84.442 Q347.299,83.43 347.706,82.16 Q348.113,80.89 348.113,79.611 z" fill="#315180"/>
    <path d="M366.109,81.238 Q366.109,82.666 366.374,83.571 Q366.64,84.476 367.238,85.007 Q367.835,85.538 368.79,85.737 Q369.744,85.937 371.139,85.937 L382.826,85.937 L382.826,91 L369.877,91 Q367.188,91 365.303,90.56 Q363.419,90.12 362.224,89.199 Q361.029,88.277 360.489,86.866 Q359.949,85.455 359.949,83.513 L359.949,68.189 L366.109,68.189 z" fill="#315180"/>
    <path d="M417.275,79.611 Q417.275,82.55 416.196,84.799 Q415.116,87.049 413.108,88.56 Q411.099,90.07 408.235,90.842 Q405.371,91.614 401.802,91.614 Q398.233,91.614 395.352,90.842 Q392.472,90.07 390.447,88.56 Q388.421,87.049 387.325,84.799 Q386.23,82.55 386.23,79.611 Q386.23,76.673 387.325,74.423 Q388.421,72.174 390.447,70.663 Q392.472,69.152 395.352,68.38 Q398.233,67.608 401.802,67.608 Q405.371,67.608 408.235,68.38 Q411.099,69.152 413.108,70.663 Q415.116,72.174 416.196,74.423 Q417.275,76.673 417.275,79.611 z M411.049,79.611 Q411.049,78.333 410.642,77.063 Q410.236,75.793 409.198,74.78 Q408.16,73.768 406.367,73.137 Q404.574,72.506 401.802,72.506 Q399.943,72.506 398.531,72.796 Q397.12,73.087 396.091,73.602 Q395.062,74.116 394.364,74.805 Q393.667,75.494 393.252,76.283 Q392.837,77.071 392.663,77.926 Q392.488,78.781 392.488,79.611 Q392.488,80.458 392.663,81.321 Q392.837,82.185 393.252,82.973 Q393.667,83.762 394.364,84.442 Q395.062,85.123 396.091,85.629 Q397.12,86.136 398.531,86.426 Q399.943,86.717 401.802,86.717 Q404.574,86.717 406.367,86.086 Q408.16,85.455 409.198,84.442 Q410.236,83.43 410.642,82.16 Q411.049,80.89 411.049,79.611 z" fill="#315180"/>
    <path d="M437.578,67.608 Q440.932,67.608 443.812,68.181 Q446.693,68.754 449.1,69.65 L449.1,75.229 Q448.154,74.697 446.967,74.199 Q445.78,73.701 444.385,73.319 Q442.99,72.938 441.397,72.705 Q439.803,72.473 438.043,72.473 Q435.852,72.473 434.225,72.788 Q432.598,73.104 431.436,73.635 Q430.274,74.166 429.527,74.872 Q428.78,75.577 428.348,76.374 Q427.916,77.171 427.75,78.001 Q427.584,78.831 427.584,79.611 Q427.584,80.292 427.725,81.089 Q427.866,81.886 428.257,82.683 Q428.647,83.479 429.344,84.21 Q430.041,84.94 431.162,85.505 Q432.282,86.069 433.86,86.41 Q435.437,86.75 437.612,86.75 Q438.707,86.75 439.521,86.684 Q440.334,86.617 441.007,86.501 Q441.679,86.385 442.268,86.219 Q442.858,86.053 443.488,85.87 L443.488,83.114 L436.582,83.114 L436.582,78.117 L449.648,78.117 L449.648,89.771 Q448.419,90.187 446.9,90.527 Q445.381,90.867 443.762,91.108 Q442.144,91.349 440.517,91.481 Q438.89,91.614 437.446,91.614 Q435.204,91.614 433.146,91.315 Q431.087,91.017 429.302,90.394 Q427.518,89.771 426.049,88.809 Q424.579,87.846 423.542,86.518 Q422.504,85.189 421.931,83.471 Q421.359,81.753 421.359,79.611 Q421.359,77.486 421.956,75.76 Q422.554,74.033 423.625,72.705 Q424.696,71.377 426.198,70.414 Q427.7,69.451 429.502,68.829 Q431.303,68.206 433.353,67.907 Q435.404,67.608 437.578,67.608 z" fill="#315180"/>
    <path d="M483.365,82.234 Q483.365,84.459 482.27,86.202 Q481.174,87.945 479.157,89.149 Q477.14,90.353 474.276,90.983 Q471.412,91.614 467.86,91.614 Q466.299,91.614 464.581,91.49 Q462.863,91.365 461.227,91.141 Q459.592,90.917 458.164,90.626 Q456.737,90.336 455.757,89.987 L455.757,84.575 Q456.82,85.023 458.123,85.422 Q459.426,85.82 460.953,86.127 Q462.481,86.435 464.232,86.609 Q465.984,86.783 467.943,86.783 Q469.785,86.783 471.188,86.567 Q472.591,86.352 473.62,85.986 Q474.65,85.621 475.33,85.148 Q476.011,84.675 476.426,84.168 Q476.841,83.662 477.015,83.164 Q477.19,82.666 477.19,82.234 L477.19,80.226 Q475.496,81.471 473.155,82.276 Q470.815,83.081 467.826,83.081 Q464.357,83.081 462.041,82.409 Q459.725,81.736 458.33,80.466 Q456.936,79.196 456.346,77.37 Q455.757,75.544 455.757,73.253 L455.757,68.189 L461.949,68.189 L461.949,72.639 Q461.949,73.983 462.306,75.029 Q462.663,76.075 463.435,76.781 Q464.207,77.486 465.436,77.852 Q466.664,78.217 468.407,78.217 Q469.885,78.217 471.205,77.852 Q472.525,77.486 473.637,76.889 Q474.749,76.291 475.646,75.527 Q476.542,74.764 477.19,73.967 L477.19,68.189 L483.365,68.189 z" fill="#315180"/>
    <path d="M189.672,34.871 Q186.866,35.801 184.069,36.208 Q181.271,36.614 178.349,36.614 Q174.614,36.614 171.7,35.809 Q168.787,35.004 166.795,33.477 Q164.803,31.949 163.757,29.741 Q162.711,27.533 162.711,24.744 Q162.711,22.154 163.765,19.938 Q164.819,17.722 166.753,16.086 Q168.687,14.451 171.427,13.53 Q174.166,12.608 177.536,12.608 Q180.64,12.608 183.222,13.447 Q185.804,14.285 187.655,15.929 Q189.506,17.572 190.527,19.979 Q191.548,22.387 191.548,25.524 L191.548,27.052 L169.069,27.052 Q169.368,28.131 170.057,29.027 Q170.746,29.924 171.925,30.555 Q173.103,31.186 174.822,31.534 Q176.54,31.883 178.93,31.883 Q180.624,31.883 182.251,31.675 Q183.878,31.468 185.289,31.127 Q186.7,30.787 187.837,30.372 Q188.974,29.957 189.672,29.542 z M185.422,22.536 Q185.339,21.689 184.915,20.785 Q184.492,19.88 183.579,19.149 Q182.666,18.419 181.188,17.946 Q179.711,17.473 177.503,17.473 Q175.428,17.473 173.917,17.987 Q172.406,18.502 171.385,19.266 Q170.364,20.029 169.8,20.909 Q169.235,21.789 169.069,22.536 z" fill="#315180"/>
    <path d="M203.302,26.238 Q203.302,27.666 203.567,28.571 Q203.833,29.476 204.43,30.007 Q205.028,30.538 205.983,30.737 Q206.937,30.937 208.332,30.937 L220.019,30.937 L220.019,36 L207.07,36 Q204.381,36 202.496,35.56 Q200.612,35.12 199.417,34.199 Q198.221,33.277 197.682,31.866 Q197.142,30.455 197.142,28.513 L197.142,13.189 L203.302,13.189 z" fill="#315180"/>
    <path d="M239.642,12.608 Q242.996,12.608 245.876,13.181 Q248.757,13.754 251.164,14.65 L251.164,20.229 Q250.218,19.697 249.031,19.199 Q247.844,18.701 246.449,18.319 Q245.054,17.937 243.461,17.705 Q241.867,17.473 240.107,17.473 Q237.916,17.473 236.289,17.788 Q234.662,18.104 233.5,18.635 Q232.338,19.166 231.591,19.872 Q230.844,20.577 230.412,21.374 Q229.98,22.171 229.814,23.001 Q229.648,23.831 229.648,24.611 Q229.648,25.292 229.789,26.089 Q229.93,26.886 230.321,27.683 Q230.711,28.479 231.408,29.21 Q232.105,29.94 233.226,30.505 Q234.346,31.069 235.924,31.41 Q237.501,31.75 239.676,31.75 Q240.771,31.75 241.585,31.684 Q242.398,31.617 243.071,31.501 Q243.743,31.385 244.332,31.219 Q244.922,31.053 245.553,30.87 L245.553,28.114 L238.646,28.114 L238.646,23.117 L251.712,23.117 L251.712,34.771 Q250.483,35.187 248.964,35.527 Q247.445,35.867 245.826,36.108 Q244.208,36.349 242.581,36.481 Q240.954,36.614 239.51,36.614 Q237.268,36.614 235.21,36.315 Q233.151,36.017 231.367,35.394 Q229.582,34.771 228.113,33.809 Q226.643,32.846 225.606,31.518 Q224.568,30.189 223.995,28.471 Q223.423,26.753 223.423,24.611 Q223.423,22.486 224.02,20.76 Q224.618,19.033 225.689,17.705 Q226.76,16.377 228.262,15.414 Q229.764,14.451 231.566,13.829 Q233.367,13.206 235.417,12.907 Q237.468,12.608 239.642,12.608 z" fill="#315180"/>
    <path d="M258.336,36 L258.336,13.189 L264.495,13.189 L264.495,36 z" fill="#315180"/>
    <path d="M293.365,36 L293.365,23.217 Q293.365,21.938 293.149,20.901 Q292.933,19.863 292.344,19.125 Q291.755,18.386 290.7,17.979 Q289.646,17.572 287.986,17.572 Q286.724,17.572 285.338,17.913 Q283.952,18.253 282.591,18.817 Q281.229,19.382 279.992,20.129 Q278.756,20.876 277.793,21.689 L277.793,36 L271.634,36 L271.634,13.189 L277.793,13.189 L277.793,16.311 Q278.955,15.646 280.266,14.991 Q281.578,14.335 283.055,13.804 Q284.533,13.272 286.193,12.94 Q287.853,12.608 289.696,12.608 Q292.004,12.608 293.822,13.165 Q295.639,13.721 296.901,14.742 Q298.163,15.763 298.835,17.215 Q299.508,18.668 299.508,20.461 L299.508,36 z" fill="#315180"/>
    <path d="M189.584,146.439 Q188.389,146.938 187.177,147.336 Q185.965,147.734 184.67,148.025 Q183.375,148.315 181.939,148.465 Q180.503,148.614 178.86,148.614 Q175.373,148.614 172.443,147.867 Q169.513,147.12 167.396,145.618 Q165.279,144.115 164.101,141.866 Q162.922,139.616 162.922,136.611 Q162.922,133.606 164.101,131.357 Q165.279,129.107 167.396,127.605 Q169.513,126.103 172.443,125.355 Q175.373,124.608 178.86,124.608 Q180.503,124.608 181.939,124.758 Q183.375,124.907 184.67,125.198 Q185.965,125.488 187.177,125.887 Q188.389,126.285 189.584,126.783 L189.584,132.328 Q188.638,131.813 187.592,131.307 Q186.546,130.801 185.284,130.394 Q184.023,129.987 182.512,129.73 Q181.001,129.473 179.109,129.473 Q176.203,129.473 174.286,130.07 Q172.368,130.668 171.223,131.664 Q170.077,132.66 169.613,133.947 Q169.148,135.233 169.148,136.611 Q169.148,137.524 169.347,138.413 Q169.546,139.301 170.011,140.089 Q170.476,140.878 171.223,141.542 Q171.97,142.206 173.082,142.688 Q174.195,143.169 175.68,143.443 Q177.166,143.717 179.109,143.717 Q181.001,143.717 182.512,143.476 Q184.023,143.235 185.284,142.837 Q186.546,142.438 187.592,141.932 Q188.638,141.426 189.584,140.895 z" fill="#315180"/>
    <path d="M220.762,146.871 Q217.956,147.801 215.159,148.208 Q212.362,148.614 209.44,148.614 Q205.704,148.614 202.791,147.809 Q199.877,147.004 197.885,145.477 Q195.893,143.949 194.847,141.741 Q193.801,139.533 193.801,136.744 Q193.801,134.154 194.855,131.938 Q195.909,129.722 197.843,128.086 Q199.778,126.451 202.517,125.53 Q205.256,124.608 208.626,124.608 Q211.731,124.608 214.312,125.447 Q216.894,126.285 218.745,127.929 Q220.596,129.572 221.617,131.979 Q222.638,134.387 222.638,137.524 L222.638,139.052 L200.159,139.052 Q200.458,140.131 201.147,141.027 Q201.836,141.924 203.015,142.555 Q204.194,143.186 205.912,143.534 Q207.63,143.883 210.021,143.883 Q211.714,143.883 213.341,143.675 Q214.968,143.468 216.379,143.127 Q217.79,142.787 218.927,142.372 Q220.065,141.957 220.762,141.542 z M216.512,134.536 Q216.429,133.689 216.006,132.785 Q215.582,131.88 214.669,131.149 Q213.756,130.419 212.279,129.946 Q210.801,129.473 208.593,129.473 Q206.518,129.473 205.007,129.987 Q203.496,130.502 202.475,131.266 Q201.454,132.029 200.89,132.909 Q200.325,133.789 200.159,134.536 z" fill="#315180"/>
    <path d="M249.964,148 L249.964,135.217 Q249.964,133.938 249.748,132.901 Q249.532,131.863 248.943,131.125 Q248.354,130.386 247.3,129.979 Q246.245,129.572 244.585,129.572 Q243.323,129.572 241.937,129.913 Q240.551,130.253 239.19,130.817 Q237.828,131.382 236.592,132.129 Q235.355,132.876 234.392,133.689 L234.392,148 L228.233,148 L228.233,125.189 L234.392,125.189 L234.392,128.311 Q235.554,127.646 236.865,126.991 Q238.177,126.335 239.654,125.804 Q241.132,125.272 242.792,124.94 Q244.452,124.608 246.295,124.608 Q248.603,124.608 250.421,125.165 Q252.238,125.721 253.5,126.742 Q254.762,127.763 255.434,129.215 Q256.107,130.668 256.107,132.461 L256.107,148 z" fill="#315180"/>
    <path d="M275.929,130.153 L275.929,148 L269.77,148 L269.77,130.153 L260.091,130.153 L260.091,125.189 L285.624,125.189 L285.624,130.153 z" fill="#315180"/>
    <path d="M315.125,146.871 Q312.32,147.801 309.522,148.208 Q306.725,148.614 303.803,148.614 Q300.068,148.614 297.154,147.809 Q294.24,147.004 292.248,145.477 Q290.256,143.949 289.21,141.741 Q288.164,139.533 288.164,136.744 Q288.164,134.154 289.218,131.938 Q290.273,129.722 292.207,128.086 Q294.141,126.451 296.88,125.53 Q299.619,124.608 302.989,124.608 Q306.094,124.608 308.676,125.447 Q311.257,126.285 313.108,127.929 Q314.959,129.572 315.98,131.979 Q317.001,134.387 317.001,137.524 L317.001,139.052 L294.523,139.052 Q294.822,140.131 295.51,141.027 Q296.199,141.924 297.378,142.555 Q298.557,143.186 300.275,143.534 Q301.993,143.883 304.384,143.883 Q306.077,143.883 307.704,143.675 Q309.331,143.468 310.742,143.127 Q312.154,142.787 313.291,142.372 Q314.428,141.957 315.125,141.542 z M310.875,134.536 Q310.792,133.689 310.369,132.785 Q309.946,131.88 309.032,131.149 Q308.119,130.419 306.642,129.946 Q305.164,129.473 302.956,129.473 Q300.881,129.473 299.37,129.987 Q297.86,130.502 296.839,131.266 Q295.818,132.029 295.253,132.909 Q294.689,133.789 294.523,134.536 z" fill="#315180"/>
    <path d="M343.58,130.353 Q343.331,130.27 342.858,130.128 Q342.385,129.987 341.754,129.846 Q341.123,129.705 340.368,129.605 Q339.613,129.506 338.816,129.506 Q337.155,129.506 335.719,129.913 Q334.283,130.319 333.038,130.992 Q331.793,131.664 330.722,132.519 Q329.652,133.374 328.755,134.271 L328.755,148 L322.596,148 L322.596,125.189 L328.755,125.189 L328.755,128.892 Q329.867,128.062 331.038,127.29 Q332.208,126.518 333.478,125.92 Q334.748,125.322 336.159,124.965 Q337.571,124.608 339.148,124.608 Q339.745,124.608 340.368,124.667 Q340.99,124.725 341.58,124.808 Q342.169,124.891 342.684,124.99 Q343.198,125.09 343.58,125.189 z" fill="#315180"/>
    <g>
      <path d="M164.282,185.852 Q164.282,184.973 164.212,184.352 Q164.142,183.73 163.901,183.332 Q163.661,182.934 163.222,182.746 Q162.782,182.559 162.044,182.559 L161.587,182.559 L161.587,181.363 L162.044,181.363 Q162.794,181.363 163.239,181.17 Q163.684,180.977 163.919,180.572 Q164.153,180.168 164.218,179.541 Q164.282,178.914 164.282,178.047 L164.282,176.605 Q164.282,175.516 164.481,174.748 Q164.681,173.98 165.102,173.488 Q165.524,172.996 166.186,172.773 Q166.849,172.551 167.763,172.551 L168.934,172.551 L168.934,173.805 L167.927,173.805 Q167.388,173.805 166.977,173.857 Q166.567,173.91 166.298,174.145 Q166.028,174.379 165.888,174.859 Q165.747,175.34 165.747,176.195 L165.747,178.047 Q165.747,178.703 165.665,179.336 Q165.583,179.969 165.354,180.496 Q165.126,181.023 164.716,181.41 Q164.306,181.797 163.638,181.961 Q164.294,182.137 164.704,182.518 Q165.114,182.898 165.349,183.426 Q165.583,183.953 165.665,184.586 Q165.747,185.219 165.747,185.875 L165.747,187.773 Q165.747,188.629 165.888,189.109 Q166.028,189.59 166.298,189.824 Q166.567,190.059 166.977,190.111 Q167.388,190.164 167.927,190.164 L168.934,190.164 L168.934,191.418 L167.763,191.418 Q166.849,191.418 166.186,191.195 Q165.524,190.973 165.102,190.48 Q164.681,189.988 164.481,189.221 Q164.282,188.453 164.282,187.363 z" fill="#315180"/>
      <path d="M164.282,185.852 Q164.282,184.973 164.212,184.352 Q164.142,183.73 163.901,183.332 Q163.661,182.934 163.222,182.746 Q162.782,182.559 162.044,182.559 L161.587,182.559 L161.587,181.363 L162.044,181.363 Q162.794,181.363 163.239,181.17 Q163.684,180.977 163.919,180.572 Q164.153,180.168 164.218,179.541 Q164.282,178.914 164.282,178.047 L164.282,176.605 Q164.282,175.516 164.481,174.748 Q164.681,173.98 165.102,173.488 Q165.524,172.996 166.186,172.773 Q166.849,172.551 167.763,172.551 L168.934,172.551 L168.934,173.805 L167.927,173.805 Q167.388,173.805 166.977,173.857 Q166.567,173.91 166.298,174.145 Q166.028,174.379 165.888,174.859 Q165.747,175.34 165.747,176.195 L165.747,178.047 Q165.747,178.703 165.665,179.336 Q165.583,179.969 165.354,180.496 Q165.126,181.023 164.716,181.41 Q164.306,181.797 163.638,181.961 Q164.294,182.137 164.704,182.518 Q165.114,182.898 165.349,183.426 Q165.583,183.953 165.665,184.586 Q165.747,185.219 165.747,185.875 L165.747,187.773 Q165.747,188.629 165.888,189.109 Q166.028,189.59 166.298,189.824 Q166.567,190.059 166.977,190.111 Q167.388,190.164 167.927,190.164 L168.934,190.164 L168.934,191.418 L167.763,191.418 Q166.849,191.418 166.186,191.195 Q165.524,190.973 165.102,190.48 Q164.681,189.988 164.481,189.221 Q164.282,188.453 164.282,187.363 z" fill-opacity="0" stroke="#315180" stroke-width="2"/>
    </g>
    <g>
      <path d="M198.102,189.156 Q197.118,189.461 196.274,189.678 Q195.431,189.895 194.61,190.029 Q193.79,190.164 192.94,190.229 Q192.091,190.293 191.071,190.293 Q188.704,190.293 186.794,189.719 Q184.884,189.145 183.542,188.072 Q182.2,187 181.474,185.477 Q180.747,183.953 180.747,182.055 Q180.747,180.215 181.444,178.68 Q182.142,177.145 183.395,176.043 Q184.649,174.941 186.395,174.332 Q188.142,173.723 190.251,173.723 Q192.442,173.723 194.153,174.309 Q195.864,174.895 197.036,175.984 Q198.208,177.074 198.817,178.627 Q199.427,180.18 199.427,182.125 L199.427,182.488 L182.259,182.488 Q182.388,183.988 183.009,185.195 Q183.63,186.402 184.772,187.246 Q185.915,188.09 187.585,188.541 Q189.255,188.992 191.481,188.992 Q192.431,188.992 193.403,188.863 Q194.376,188.734 195.267,188.518 Q196.157,188.301 196.895,188.025 Q197.634,187.75 198.102,187.457 z M197.985,181.211 Q197.903,179.98 197.434,178.861 Q196.966,177.742 196.034,176.887 Q195.102,176.031 193.667,175.527 Q192.231,175.023 190.227,175.023 Q188.341,175.023 186.923,175.527 Q185.505,176.031 184.52,176.881 Q183.536,177.73 182.974,178.85 Q182.411,179.969 182.259,181.211 z" fill="#315180"/>
      <path d="M198.102,189.156 Q197.118,189.461 196.274,189.678 Q195.431,189.895 194.61,190.029 Q193.79,190.164 192.94,190.229 Q192.091,190.293 191.071,190.293 Q188.704,190.293 186.794,189.719 Q184.884,189.145 183.542,188.072 Q182.2,187 181.474,185.477 Q180.747,183.953 180.747,182.055 Q180.747,180.215 181.444,178.68 Q182.142,177.145 183.395,176.043 Q184.649,174.941 186.395,174.332 Q188.142,173.723 190.251,173.723 Q192.442,173.723 194.153,174.309 Q195.864,174.895 197.036,175.984 Q198.208,177.074 198.817,178.627 Q199.427,180.18 199.427,182.125 L199.427,182.488 L182.259,182.488 Q182.388,183.988 183.009,185.195 Q183.63,186.402 184.772,187.246 Q185.915,188.09 187.585,188.541 Q189.255,188.992 191.481,188.992 Q192.431,188.992 193.403,188.863 Q194.376,188.734 195.267,188.518 Q196.157,188.301 196.895,188.025 Q197.634,187.75 198.102,187.457 z M197.985,181.211 Q197.903,179.98 197.434,178.861 Q196.966,177.742 196.034,176.887 Q195.102,176.031 193.667,175.527 Q192.231,175.023 190.227,175.023 Q188.341,175.023 186.923,175.527 Q185.505,176.031 184.52,176.881 Q183.536,177.73 182.974,178.85 Q182.411,179.969 182.259,181.211 z" fill-opacity="0" stroke="#315180" stroke-width="2"/>
    </g>
    <g>
      <path d="M205.181,184.434 Q205.181,185.523 205.356,186.309 Q205.532,187.094 206.095,187.598 Q206.657,188.102 207.718,188.342 Q208.778,188.582 210.536,188.582 L217.813,188.582 L217.813,190 L210.243,190 Q208.309,190 207.05,189.689 Q205.79,189.379 205.046,188.729 Q204.302,188.078 204.009,187.082 Q203.716,186.086 203.716,184.715 L203.716,173.898 L205.181,173.898 z" fill="#315180"/>
      <path d="M205.181,184.434 Q205.181,185.523 205.356,186.309 Q205.532,187.094 206.095,187.598 Q206.657,188.102 207.718,188.342 Q208.778,188.582 210.536,188.582 L217.813,188.582 L217.813,190 L210.243,190 Q208.309,190 207.05,189.689 Q205.79,189.379 205.046,188.729 Q204.302,188.078 204.009,187.082 Q203.716,186.086 203.716,184.715 L203.716,173.898 L205.181,173.898 z" fill-opacity="0" stroke="#315180" stroke-width="2"/>
    </g>
    <g>
      <path d="M230.235,173.605 Q231.349,173.605 232.309,173.717 Q233.27,173.828 234.149,174.033 Q235.028,174.238 235.86,174.525 Q236.692,174.812 237.536,175.164 L237.536,176.945 Q236.868,176.523 236.112,176.148 Q235.356,175.773 234.483,175.492 Q233.61,175.211 232.608,175.047 Q231.606,174.883 230.458,174.883 Q228.114,174.883 226.368,175.375 Q224.622,175.867 223.462,176.781 Q222.302,177.695 221.722,179.008 Q221.142,180.32 221.142,181.961 Q221.142,183.496 221.71,184.791 Q222.278,186.086 223.433,187.023 Q224.587,187.961 226.321,188.488 Q228.056,189.016 230.388,189.016 Q231.302,189.016 232.198,188.945 Q233.095,188.875 233.892,188.764 Q234.688,188.652 235.345,188.518 Q236.001,188.383 236.458,188.242 L236.458,183.355 L229.907,183.355 L229.907,181.984 L237.923,181.984 L237.923,189.062 Q237.056,189.367 236.171,189.602 Q235.286,189.836 234.343,189.994 Q233.399,190.152 232.386,190.234 Q231.372,190.316 230.259,190.316 Q227.985,190.316 226.04,189.807 Q224.095,189.297 222.671,188.26 Q221.247,187.223 220.438,185.652 Q219.63,184.082 219.63,181.961 Q219.63,180.543 220.005,179.377 Q220.38,178.211 221.065,177.279 Q221.751,176.348 222.718,175.656 Q223.684,174.965 224.862,174.514 Q226.04,174.062 227.399,173.834 Q228.759,173.605 230.235,173.605 z" fill="#315180"/>
      <path d="M230.235,173.605 Q231.349,173.605 232.309,173.717 Q233.27,173.828 234.149,174.033 Q235.028,174.238 235.86,174.525 Q236.692,174.812 237.536,175.164 L237.536,176.945 Q236.868,176.523 236.112,176.148 Q235.356,175.773 234.483,175.492 Q233.61,175.211 232.608,175.047 Q231.606,174.883 230.458,174.883 Q228.114,174.883 226.368,175.375 Q224.622,175.867 223.462,176.781 Q222.302,177.695 221.722,179.008 Q221.142,180.32 221.142,181.961 Q221.142,183.496 221.71,184.791 Q222.278,186.086 223.433,187.023 Q224.587,187.961 226.321,188.488 Q228.056,189.016 230.388,189.016 Q231.302,189.016 232.198,188.945 Q233.095,188.875 233.892,188.764 Q234.688,188.652 235.345,188.518 Q236.001,188.383 236.458,188.242 L236.458,183.355 L229.907,183.355 L229.907,181.984 L237.923,181.984 L237.923,189.062 Q237.056,189.367 236.171,189.602 Q235.286,189.836 234.343,189.994 Q233.399,190.152 232.386,190.234 Q231.372,190.316 230.259,190.316 Q227.985,190.316 226.04,189.807 Q224.095,189.297 222.671,188.26 Q221.247,187.223 220.438,185.652 Q219.63,184.082 219.63,181.961 Q219.63,180.543 220.005,179.377 Q220.38,178.211 221.065,177.279 Q221.751,176.348 222.718,175.656 Q223.684,174.965 224.862,174.514 Q226.04,174.062 227.399,173.834 Q228.759,173.605 230.235,173.605 z" fill-opacity="0" stroke="#315180" stroke-width="2"/>
    </g>
    <g>
      <path d="M242.599,190 L242.599,173.898 L244.063,173.898 L244.063,190 z" fill="#315180"/>
      <path d="M242.599,190 L242.599,173.898 L244.063,173.898 L244.063,190 z" fill-opacity="0" stroke="#315180" stroke-width="2"/>
    </g>
    <g>
      <path d="M265.075,190 L265.075,179.371 Q265.075,178.035 264.718,177.174 Q264.36,176.312 263.698,175.809 Q263.036,175.305 262.087,175.105 Q261.138,174.906 259.954,174.906 Q258.583,174.906 257.265,175.24 Q255.946,175.574 254.774,176.084 Q253.602,176.594 252.618,177.215 Q251.634,177.836 250.954,178.41 L250.954,190 L249.489,190 L249.489,173.898 L250.954,173.898 L250.954,176.723 Q251.774,176.207 252.765,175.639 Q253.755,175.07 254.897,174.596 Q256.04,174.121 257.341,173.816 Q258.642,173.512 260.083,173.512 Q261.712,173.512 262.925,173.904 Q264.138,174.297 264.94,175.018 Q265.743,175.738 266.142,176.764 Q266.54,177.789 266.54,179.055 L266.54,190 z" fill="#315180"/>
      <path d="M265.075,190 L265.075,179.371 Q265.075,178.035 264.718,177.174 Q264.36,176.312 263.698,175.809 Q263.036,175.305 262.087,175.105 Q261.138,174.906 259.954,174.906 Q258.583,174.906 257.265,175.24 Q255.946,175.574 254.774,176.084 Q253.602,176.594 252.618,177.215 Q251.634,177.836 250.954,178.41 L250.954,190 L249.489,190 L249.489,173.898 L250.954,173.898 L250.954,176.723 Q251.774,176.207 252.765,175.639 Q253.755,175.07 254.897,174.596 Q256.04,174.121 257.341,173.816 Q258.642,173.512 260.083,173.512 Q261.712,173.512 262.925,173.904 Q264.138,174.297 264.94,175.018 Q265.743,175.738 266.142,176.764 Q266.54,177.789 266.54,179.055 L266.54,190 z" fill-opacity="0" stroke="#315180" stroke-width="2"/>
    </g>
    <g>
      <path d="M278.411,175.234 L278.411,190 L276.958,190 L276.958,175.234 L269.634,175.234 L269.634,173.898 L285.735,173.898 L285.735,175.234 z" fill="#315180"/>
      <path d="M278.411,175.234 L278.411,190 L276.958,190 L276.958,175.234 L269.634,175.234 L269.634,173.898 L285.735,173.898 L285.735,175.234 z" fill-opacity="0" stroke="#315180" stroke-width="2"/>
    </g>
    <g>
      <path d="M304.649,189.156 Q303.665,189.461 302.821,189.678 Q301.977,189.895 301.157,190.029 Q300.337,190.164 299.487,190.229 Q298.638,190.293 297.618,190.293 Q295.251,190.293 293.341,189.719 Q291.431,189.145 290.089,188.072 Q288.747,187 288.02,185.477 Q287.294,183.953 287.294,182.055 Q287.294,180.215 287.991,178.68 Q288.688,177.145 289.942,176.043 Q291.196,174.941 292.942,174.332 Q294.688,173.723 296.798,173.723 Q298.989,173.723 300.7,174.309 Q302.411,174.895 303.583,175.984 Q304.755,177.074 305.364,178.627 Q305.974,180.18 305.974,182.125 L305.974,182.488 L288.806,182.488 Q288.935,183.988 289.556,185.195 Q290.177,186.402 291.319,187.246 Q292.462,188.09 294.132,188.541 Q295.802,188.992 298.028,188.992 Q298.977,188.992 299.95,188.863 Q300.923,188.734 301.813,188.518 Q302.704,188.301 303.442,188.025 Q304.181,187.75 304.649,187.457 z M304.532,181.211 Q304.45,179.98 303.981,178.861 Q303.513,177.742 302.581,176.887 Q301.649,176.031 300.214,175.527 Q298.778,175.023 296.774,175.023 Q294.888,175.023 293.47,175.527 Q292.052,176.031 291.067,176.881 Q290.083,177.73 289.52,178.85 Q288.958,179.969 288.806,181.211 z" fill="#315180"/>
      <path d="M304.649,189.156 Q303.665,189.461 302.821,189.678 Q301.977,189.895 301.157,190.029 Q300.337,190.164 299.487,190.229 Q298.638,190.293 297.618,190.293 Q295.251,190.293 293.341,189.719 Q291.431,189.145 290.089,188.072 Q288.747,187 288.02,185.477 Q287.294,183.953 287.294,182.055 Q287.294,180.215 287.991,178.68 Q288.688,177.145 289.942,176.043 Q291.196,174.941 292.942,174.332 Q294.688,173.723 296.798,173.723 Q298.989,173.723 300.7,174.309 Q302.411,174.895 303.583,175.984 Q304.755,177.074 305.364,178.627 Q305.974,180.18 305.974,182.125 L305.974,182.488 L288.806,182.488 Q288.935,183.988 289.556,185.195 Q290.177,186.402 291.319,187.246 Q292.462,188.09 294.132,188.541 Q295.802,188.992 298.028,188.992 Q298.977,188.992 299.95,188.863 Q300.923,188.734 301.813,188.518 Q302.704,188.301 303.442,188.025 Q304.181,187.75 304.649,187.457 z M304.532,181.211 Q304.45,179.98 303.981,178.861 Q303.513,177.742 302.581,176.887 Q301.649,176.031 300.214,175.527 Q298.778,175.023 296.774,175.023 Q294.888,175.023 293.47,175.527 Q292.052,176.031 291.067,176.881 Q290.083,177.73 289.52,178.85 Q288.958,179.969 288.806,181.211 z" fill-opacity="0" stroke="#315180" stroke-width="2"/>
    </g>
    <g>
      <path d="M326.774,188.723 Q325.931,189.074 325.104,189.367 Q324.278,189.66 323.388,189.871 Q322.497,190.082 321.513,190.199 Q320.528,190.316 319.368,190.316 Q317.938,190.316 316.62,190.082 Q315.302,189.848 314.165,189.379 Q313.028,188.91 312.102,188.213 Q311.177,187.516 310.515,186.59 Q309.852,185.664 309.495,184.504 Q309.138,183.344 309.138,181.961 Q309.138,180.578 309.495,179.418 Q309.852,178.258 310.515,177.332 Q311.177,176.406 312.102,175.709 Q313.028,175.012 314.165,174.543 Q315.302,174.074 316.614,173.84 Q317.927,173.605 319.368,173.605 Q320.528,173.605 321.513,173.723 Q322.497,173.84 323.388,174.051 Q324.278,174.262 325.104,174.549 Q325.931,174.836 326.774,175.188 L326.774,176.945 Q326.106,176.523 325.345,176.148 Q324.583,175.773 323.698,175.492 Q322.813,175.211 321.806,175.047 Q320.798,174.883 319.649,174.883 Q317.329,174.883 315.63,175.387 Q313.931,175.891 312.823,176.811 Q311.716,177.73 311.183,179.037 Q310.649,180.344 310.649,181.961 Q310.649,183.578 311.183,184.879 Q311.716,186.18 312.823,187.1 Q313.931,188.02 315.63,188.518 Q317.329,189.016 319.649,189.016 Q320.798,189.016 321.823,188.852 Q322.849,188.688 323.745,188.406 Q324.642,188.125 325.397,187.756 Q326.153,187.387 326.774,186.977 z" fill="#315180"/>
      <path d="M326.774,188.723 Q325.931,189.074 325.104,189.367 Q324.278,189.66 323.388,189.871 Q322.497,190.082 321.513,190.199 Q320.528,190.316 319.368,190.316 Q317.938,190.316 316.62,190.082 Q315.302,189.848 314.165,189.379 Q313.028,188.91 312.102,188.213 Q311.177,187.516 310.515,186.59 Q309.852,185.664 309.495,184.504 Q309.138,183.344 309.138,181.961 Q309.138,180.578 309.495,179.418 Q309.852,178.258 310.515,177.332 Q311.177,176.406 312.102,175.709 Q313.028,175.012 314.165,174.543 Q315.302,174.074 316.614,173.84 Q317.927,173.605 319.368,173.605 Q320.528,173.605 321.513,173.723 Q322.497,173.84 323.388,174.051 Q324.278,174.262 325.104,174.549 Q325.931,174.836 326.774,175.188 L326.774,176.945 Q326.106,176.523 325.345,176.148 Q324.583,175.773 323.698,175.492 Q322.813,175.211 321.806,175.047 Q320.798,174.883 319.649,174.883 Q317.329,174.883 315.63,175.387 Q313.931,175.891 312.823,176.811 Q311.716,177.73 311.183,179.037 Q310.649,180.344 310.649,181.961 Q310.649,183.578 311.183,184.879 Q311.716,186.18 312.823,187.1 Q313.931,188.02 315.63,188.518 Q317.329,189.016 319.649,189.016 Q320.798,189.016 321.823,188.852 Q322.849,188.688 323.745,188.406 Q324.642,188.125 325.397,187.756 Q326.153,187.387 326.774,186.977 z" fill-opacity="0" stroke="#315180" stroke-width="2"/>
    </g>
    <g>
      <path d="M347.013,190 L347.013,182.195 L332.587,182.195 L332.587,190 L331.122,190 L331.122,173.898 L332.587,173.898 L332.587,180.836 L347.013,180.836 L347.013,173.898 L348.477,173.898 L348.477,190 z" fill="#315180"/>
      <path d="M347.013,190 L347.013,182.195 L332.587,182.195 L332.587,190 L331.122,190 L331.122,173.898 L332.587,173.898 L332.587,180.836 L347.013,180.836 L347.013,173.898 L348.477,173.898 L348.477,190 z" fill-opacity="0" stroke="#315180" stroke-width="2"/>
    </g>
    <g>
      <path d="M352.392,190 L352.392,187.457 L354.431,187.457 L354.431,190 z" fill="#315180"/>
      <path d="M352.392,190 L352.392,187.457 L354.431,187.457 L354.431,190 z" fill-opacity="0" stroke="#315180" stroke-width="2"/>
    </g>
    <g>
      <path d="M377.669,181.961 Q377.669,184.129 376.884,185.705 Q376.099,187.281 374.727,188.307 Q373.356,189.332 371.493,189.824 Q369.63,190.316 367.474,190.316 Q365.306,190.316 363.431,189.824 Q361.556,189.332 360.173,188.307 Q358.79,187.281 358.005,185.705 Q357.22,184.129 357.22,181.961 Q357.22,180.52 357.583,179.342 Q357.946,178.164 358.602,177.232 Q359.259,176.301 360.19,175.621 Q361.122,174.941 362.265,174.49 Q363.407,174.039 364.72,173.822 Q366.032,173.605 367.474,173.605 Q369.63,173.605 371.493,174.098 Q373.356,174.59 374.727,175.615 Q376.099,176.641 376.884,178.217 Q377.669,179.793 377.669,181.961 z M376.157,181.961 Q376.157,180.25 375.601,178.938 Q375.044,177.625 373.954,176.729 Q372.864,175.832 371.241,175.369 Q369.618,174.906 367.474,174.906 Q365.329,174.906 363.694,175.375 Q362.06,175.844 360.958,176.74 Q359.856,177.637 359.294,178.955 Q358.731,180.273 358.731,181.961 Q358.731,183.672 359.294,184.984 Q359.856,186.297 360.958,187.193 Q362.06,188.09 363.694,188.553 Q365.329,189.016 367.474,189.016 Q369.618,189.016 371.241,188.553 Q372.864,188.09 373.954,187.193 Q375.044,186.297 375.601,184.984 Q376.157,183.672 376.157,181.961 z" fill="#315180"/>
      <path d="M377.669,181.961 Q377.669,184.129 376.884,185.705 Q376.099,187.281 374.727,188.307 Q373.356,189.332 371.493,189.824 Q369.63,190.316 367.474,190.316 Q365.306,190.316 363.431,189.824 Q361.556,189.332 360.173,188.307 Q358.79,187.281 358.005,185.705 Q357.22,184.129 357.22,181.961 Q357.22,180.52 357.583,179.342 Q357.946,178.164 358.602,177.232 Q359.259,176.301 360.19,175.621 Q361.122,174.941 362.265,174.49 Q363.407,174.039 364.72,173.822 Q366.032,173.605 367.474,173.605 Q369.63,173.605 371.493,174.098 Q373.356,174.59 374.727,175.615 Q376.099,176.641 376.884,178.217 Q377.669,179.793 377.669,181.961 z M376.157,181.961 Q376.157,180.25 375.601,178.938 Q375.044,177.625 373.954,176.729 Q372.864,175.832 371.241,175.369 Q369.618,174.906 367.474,174.906 Q365.329,174.906 363.694,175.375 Q362.06,175.844 360.958,176.74 Q359.856,177.637 359.294,178.955 Q358.731,180.273 358.731,181.961 Q358.731,183.672 359.294,184.984 Q359.856,186.297 360.958,187.193 Q362.06,188.09 363.694,188.553 Q365.329,189.016 367.474,189.016 Q369.618,189.016 371.241,188.553 Q372.864,188.09 373.954,187.193 Q375.044,186.297 375.601,184.984 Q376.157,183.672 376.157,181.961 z" fill-opacity="0" stroke="#315180" stroke-width="2"/>
    </g>
    <g>
      <path d="M393.888,175.141 Q393.548,175.035 392.944,174.912 Q392.341,174.789 391.392,174.789 Q390.079,174.789 388.925,175.111 Q387.77,175.434 386.78,175.984 Q385.79,176.535 384.946,177.268 Q384.102,178 383.423,178.82 L383.423,190 L381.958,190 L381.958,173.898 L383.423,173.898 L383.423,177.18 Q384.208,176.371 385.128,175.691 Q386.048,175.012 387.067,174.525 Q388.087,174.039 389.206,173.764 Q390.325,173.488 391.52,173.488 Q391.931,173.488 392.259,173.506 Q392.587,173.523 392.862,173.553 Q393.138,173.582 393.384,173.617 Q393.63,173.652 393.888,173.699 z" fill="#315180"/>
      <path d="M393.888,175.141 Q393.548,175.035 392.944,174.912 Q392.341,174.789 391.392,174.789 Q390.079,174.789 388.925,175.111 Q387.77,175.434 386.78,175.984 Q385.79,176.535 384.946,177.268 Q384.102,178 383.423,178.82 L383.423,190 L381.958,190 L381.958,173.898 L383.423,173.898 L383.423,177.18 Q384.208,176.371 385.128,175.691 Q386.048,175.012 387.067,174.525 Q388.087,174.039 389.206,173.764 Q390.325,173.488 391.52,173.488 Q391.931,173.488 392.259,173.506 Q392.587,173.523 392.862,173.553 Q393.138,173.582 393.384,173.617 Q393.63,173.652 393.888,173.699 z" fill-opacity="0" stroke="#315180" stroke-width="2"/>
    </g>
    <g>
      <path d="M406.075,173.605 Q407.188,173.605 408.149,173.717 Q409.11,173.828 409.989,174.033 Q410.868,174.238 411.7,174.525 Q412.532,174.812 413.376,175.164 L413.376,176.945 Q412.708,176.523 411.952,176.148 Q411.196,175.773 410.323,175.492 Q409.45,175.211 408.448,175.047 Q407.446,174.883 406.298,174.883 Q403.954,174.883 402.208,175.375 Q400.462,175.867 399.302,176.781 Q398.142,177.695 397.561,179.008 Q396.981,180.32 396.981,181.961 Q396.981,183.496 397.55,184.791 Q398.118,186.086 399.272,187.023 Q400.427,187.961 402.161,188.488 Q403.895,189.016 406.227,189.016 Q407.142,189.016 408.038,188.945 Q408.935,188.875 409.731,188.764 Q410.528,188.652 411.185,188.518 Q411.841,188.383 412.298,188.242 L412.298,183.355 L405.747,183.355 L405.747,181.984 L413.763,181.984 L413.763,189.062 Q412.895,189.367 412.011,189.602 Q411.126,189.836 410.183,189.994 Q409.239,190.152 408.226,190.234 Q407.212,190.316 406.099,190.316 Q403.825,190.316 401.88,189.807 Q399.935,189.297 398.511,188.26 Q397.087,187.223 396.278,185.652 Q395.47,184.082 395.47,181.961 Q395.47,180.543 395.845,179.377 Q396.22,178.211 396.905,177.279 Q397.591,176.348 398.558,175.656 Q399.524,174.965 400.702,174.514 Q401.88,174.062 403.239,173.834 Q404.599,173.605 406.075,173.605 z" fill="#315180"/>
      <path d="M406.075,173.605 Q407.188,173.605 408.149,173.717 Q409.11,173.828 409.989,174.033 Q410.868,174.238 411.7,174.525 Q412.532,174.812 413.376,175.164 L413.376,176.945 Q412.708,176.523 411.952,176.148 Q411.196,175.773 410.323,175.492 Q409.45,175.211 408.448,175.047 Q407.446,174.883 406.298,174.883 Q403.954,174.883 402.208,175.375 Q400.462,175.867 399.302,176.781 Q398.142,177.695 397.561,179.008 Q396.981,180.32 396.981,181.961 Q396.981,183.496 397.55,184.791 Q398.118,186.086 399.272,187.023 Q400.427,187.961 402.161,188.488 Q403.895,189.016 406.227,189.016 Q407.142,189.016 408.038,188.945 Q408.935,188.875 409.731,188.764 Q410.528,188.652 411.185,188.518 Q411.841,188.383 412.298,188.242 L412.298,183.355 L405.747,183.355 L405.747,181.984 L413.763,181.984 L413.763,189.062 Q412.895,189.367 412.011,189.602 Q411.126,189.836 410.183,189.994 Q409.239,190.152 408.226,190.234 Q407.212,190.316 406.099,190.316 Q403.825,190.316 401.88,189.807 Q399.935,189.297 398.511,188.26 Q397.087,187.223 396.278,185.652 Q395.47,184.082 395.47,181.961 Q395.47,180.543 395.845,179.377 Q396.22,178.211 396.905,177.279 Q397.591,176.348 398.558,175.656 Q399.524,174.965 400.702,174.514 Q401.88,174.062 403.239,173.834 Q404.599,173.605 406.075,173.605 z" fill-opacity="0" stroke="#315180" stroke-width="2"/>
    </g>
    <g>
      <path d="M430.614,187.363 Q430.614,188.453 430.415,189.221 Q430.216,189.988 429.794,190.48 Q429.372,190.973 428.71,191.195 Q428.048,191.418 427.134,191.418 L425.95,191.418 L425.95,190.164 L426.958,190.164 Q427.497,190.164 427.907,190.111 Q428.317,190.059 428.593,189.824 Q428.868,189.59 429.009,189.109 Q429.149,188.629 429.149,187.773 L429.149,185.875 Q429.149,185.219 429.231,184.586 Q429.313,183.953 429.548,183.426 Q429.782,182.898 430.192,182.518 Q430.602,182.137 431.259,181.961 Q430.591,181.797 430.175,181.41 Q429.759,181.023 429.53,180.496 Q429.302,179.969 429.226,179.336 Q429.149,178.703 429.149,178.047 L429.149,176.195 Q429.149,175.34 429.009,174.859 Q428.868,174.379 428.593,174.145 Q428.317,173.91 427.907,173.857 Q427.497,173.805 426.958,173.805 L425.95,173.805 L425.95,172.551 L427.134,172.551 Q428.048,172.551 428.71,172.773 Q429.372,172.996 429.794,173.488 Q430.216,173.98 430.415,174.748 Q430.614,175.516 430.614,176.605 L430.614,178.047 Q430.614,178.914 430.679,179.541 Q430.743,180.168 430.972,180.572 Q431.2,180.977 431.64,181.17 Q432.079,181.363 432.841,181.363 L433.298,181.363 L433.298,182.559 L432.841,182.559 Q432.102,182.559 431.663,182.746 Q431.224,182.934 430.989,183.332 Q430.755,183.73 430.685,184.352 Q430.614,184.973 430.614,185.852 z" fill="#315180"/>
      <path d="M430.614,187.363 Q430.614,188.453 430.415,189.221 Q430.216,189.988 429.794,190.48 Q429.372,190.973 428.71,191.195 Q428.048,191.418 427.134,191.418 L425.95,191.418 L425.95,190.164 L426.958,190.164 Q427.497,190.164 427.907,190.111 Q428.317,190.059 428.593,189.824 Q428.868,189.59 429.009,189.109 Q429.149,188.629 429.149,187.773 L429.149,185.875 Q429.149,185.219 429.231,184.586 Q429.313,183.953 429.548,183.426 Q429.782,182.898 430.192,182.518 Q430.602,182.137 431.259,181.961 Q430.591,181.797 430.175,181.41 Q429.759,181.023 429.53,180.496 Q429.302,179.969 429.226,179.336 Q429.149,178.703 429.149,178.047 L429.149,176.195 Q429.149,175.34 429.009,174.859 Q428.868,174.379 428.593,174.145 Q428.317,173.91 427.907,173.857 Q427.497,173.805 426.958,173.805 L425.95,173.805 L425.95,172.551 L427.134,172.551 Q428.048,172.551 428.71,172.773 Q429.372,172.996 429.794,173.488 Q430.216,173.98 430.415,174.748 Q430.614,175.516 430.614,176.605 L430.614,178.047 Q430.614,178.914 430.679,179.541 Q430.743,180.168 430.972,180.572 Q431.2,180.977 431.64,181.17 Q432.079,181.363 432.841,181.363 L433.298,181.363 L433.298,182.559 L432.841,182.559 Q432.102,182.559 431.663,182.746 Q431.224,182.934 430.989,183.332 Q430.755,183.73 430.685,184.352 Q430.614,184.973 430.614,185.852 z" fill-opacity="0" stroke="#315180" stroke-width="2"/>
    </g>
  </g>
  <defs/>
</svg>
