<?xml version="1.0" encoding="UTF-8"?>
<!DOCTYPE svg PUBLIC "-//W3C//DTD SVG 1.1//EN" "http://www.w3.org/Graphics/SVG/1.1/DTD/svg11.dtd">
<svg version="1.1" xmlns="http://www.w3.org/2000/svg" xmlns:xlink="http://www.w3.org/1999/xlink" x="0px" y="0px" width="70.833" height="100" viewBox="0, 0, 70.833, 100">
  <g id="Layer 1">
    <g>
      <path d="M16.667,77.083 C16.667,80.535 13.869,83.333 10.417,83.333 C6.965,83.333 4.167,80.535 4.167,77.083 C4.167,73.631 6.965,70.833 10.417,70.833 C13.869,70.833 16.667,73.631 16.667,77.083 z" fill="#FFFFFF"/>
      <path d="M10.417,85.417 C4.663,85.417 -0,90.079 -0,95.833 L-0,100 L20.833,100 L20.833,95.833 C20.833,90.079 16.17,85.417 10.417,85.417 z" fill="#FFFFFF"/>
      <path d="M41.667,77.083 C41.667,80.535 38.869,83.333 35.417,83.333 C31.965,83.333 29.167,80.535 29.167,77.083 C29.167,73.631 31.965,70.833 35.417,70.833 C38.869,70.833 41.667,73.631 41.667,77.083 z" fill="#FFFFFF"/>
      <path d="M35.417,85.417 C29.663,85.417 25,90.079 25,95.833 L25,100 L45.833,100 L45.833,95.833 C45.833,90.079 41.17,85.417 35.417,85.417 z" fill="#FFFFFF"/>
      <path d="M66.667,77.083 C66.667,80.535 63.869,83.333 60.417,83.333 C56.965,83.333 54.167,80.535 54.167,77.083 C54.167,73.631 56.965,70.833 60.417,70.833 C63.869,70.833 66.667,73.631 66.667,77.083 z" fill="#FFFFFF"/>
      <path d="M60.417,85.417 C54.663,85.417 50,90.079 50,95.833 L50,100 L70.832,100 L70.832,95.833 C70.833,90.079 66.17,85.417 60.417,85.417 z" fill="#FFFFFF"/>
      <path d="M58.333,66.667 C58.972,66.667 59.589,66.374 59.989,65.849 C60.53,65.141 60.56,64.169 60.067,63.428 C60.034,63.377 57.138,58.985 56.414,54.167 L60.417,54.167 C63.863,54.167 66.667,51.363 66.667,47.917 L66.667,6.25 C66.667,2.804 63.863,0 60.417,0 L10.417,0 C6.971,0 4.167,2.804 4.167,6.25 L4.167,47.917 C4.167,51.364 6.971,54.167 10.417,54.167 L14.418,54.167 C13.691,58.967 10.798,63.381 10.765,63.431 C10.274,64.171 10.305,65.142 10.847,65.849 C11.25,66.374 11.866,66.667 12.501,66.667 C12.721,66.667 12.942,66.632 13.159,66.558 C13.685,66.384 25.156,62.458 26.864,54.167 L29.748,54.167 L33.44,65.243 C33.723,66.093 34.518,66.667 35.416,66.667 C36.314,66.667 37.109,66.093 37.393,65.243 L41.084,54.167 L43.959,54.167 C45.664,62.462 57.147,66.385 57.674,66.558 C57.891,66.632 58.114,66.667 58.333,66.667 z M47.917,52.083 C47.917,50.932 46.983,50 45.833,50 L39.583,50 C38.686,50 37.892,50.574 37.607,51.425 L35.417,57.995 L33.227,51.425 C32.936,50.552 32.123,50.009 31.251,50.01 L31.251,50 L25,50 C23.85,50 22.917,50.932 22.917,52.083 C22.917,55.417 20.059,58.157 17.103,60.042 C17.997,57.724 18.751,54.923 18.751,52.083 C18.751,50.932 17.818,50 16.668,50 L10.418,50 C9.269,50 8.335,49.067 8.335,47.917 L8.335,6.25 C8.335,5.1 9.27,4.167 10.418,4.167 L60.418,4.167 C61.566,4.167 62.502,5.1 62.502,6.25 L62.502,47.917 C62.502,49.067 61.566,50 60.418,50 L54.168,50 C53.018,50 52.084,50.932 52.084,52.083 C52.084,54.915 52.836,57.706 53.725,60.022 C50.868,58.224 47.917,55.531 47.917,52.083 z" fill="#FFFFFF"/>
      <path d="M35.417,16.667 C30.815,16.667 27.084,20.398 27.084,25 C27.084,28.076 28.693,29.867 30.124,32.354 C30.657,33.282 31.251,35.416 31.251,36.458 C31.251,37.033 31.717,37.5 32.293,37.5 L38.543,37.5 C39.118,37.5 39.584,37.033 39.584,36.458 C39.584,35.416 40.179,33.281 40.712,32.354 C42.143,29.867 43.752,28.076 43.752,25 C43.75,20.398 40.018,16.667 35.417,16.667 z" fill="#FFFFFF"/>
      <path d="M38.542,39.583 L32.292,39.583 C31.717,39.583 31.25,40.049 31.25,40.625 C31.25,41.201 31.716,41.667 32.292,41.667 L38.542,41.667 C39.117,41.667 39.583,41.201 39.583,40.625 C39.583,40.049 39.117,39.583 38.542,39.583 z" fill="#FFFFFF"/>
      <path d="M36.979,43.75 L33.854,43.75 C33.279,43.75 32.812,44.217 32.812,44.792 C32.812,45.367 33.278,45.834 33.854,45.834 L36.979,45.834 C37.554,45.834 38.02,45.367 38.02,44.792 C38.02,44.217 37.554,43.75 36.979,43.75 z" fill="#FFFFFF"/>
      <path d="M35.417,14.583 C35.992,14.583 36.459,14.116 36.459,13.541 L36.459,9.375 C36.459,8.8 35.993,8.333 35.417,8.333 C34.841,8.333 34.375,8.8 34.375,9.375 L34.375,13.542 C34.375,14.117 34.841,14.583 35.417,14.583 z" fill="#FFFFFF"/>
      <path d="M23.958,23.958 L19.791,23.958 C19.216,23.958 18.749,24.424 18.749,25 C18.749,25.576 19.215,26.042 19.791,26.042 L23.958,26.042 C24.533,26.042 25,25.575 25,25 C25,24.425 24.533,23.958 23.958,23.958 z" fill="#FFFFFF"/>
      <path d="M27.641,15.751 L24.695,12.805 C24.288,12.398 23.629,12.398 23.222,12.805 C22.815,13.212 22.815,13.871 23.222,14.278 L26.168,17.224 C26.372,17.428 26.639,17.529 26.905,17.529 C27.171,17.529 27.438,17.427 27.641,17.224 C28.047,16.817 28.047,16.158 27.641,15.751 z" fill="#FFFFFF"/>
      <path d="M47.612,12.805 C47.205,12.398 46.546,12.398 46.138,12.805 L43.192,15.751 C42.786,16.158 42.786,16.817 43.192,17.224 C43.396,17.428 43.663,17.529 43.928,17.529 C44.195,17.529 44.461,17.427 44.665,17.224 L47.611,14.278 C48.018,13.871 48.018,13.212 47.612,12.805 z" fill="#FFFFFF"/>
      <path d="M51.042,23.958 L46.876,23.958 C46.3,23.958 45.833,24.424 45.833,25 C45.833,25.576 46.3,26.042 46.876,26.042 L51.042,26.042 C51.617,26.042 52.083,25.576 52.083,25 C52.083,24.424 51.617,23.958 51.042,23.958 z" fill="#FFFFFF"/>
    </g>
  </g>
  <defs/>
</svg>
