<?xml version="1.0" encoding="UTF-8"?>
<!DOCTYPE svg PUBLIC "-//W3C//DTD SVG 1.1//EN" "http://www.w3.org/Graphics/SVG/1.1/DTD/svg11.dtd">
<svg version="1.1" xmlns="http://www.w3.org/2000/svg" xmlns:xlink="http://www.w3.org/1999/xlink" x="0px" y="0px" width="100" height="100" viewBox="0, 0, 100, 100">
  <g id="Layer 1">
    <g>
      <path d="M89.798,70.945 L89.798,75.656 L92.611,75.656 L92.611,70.945 C92.611,65.292 88.015,60.696 82.365,60.696 L51.412,60.696 L51.412,54.474 C60.802,53.731 68.193,45.891 68.193,36.314 C68.193,26.24 60.029,18.08 49.958,18.08 C39.89,18.08 31.725,26.241 31.725,36.314 C31.725,45.922 39.167,53.779 48.597,54.478 L48.597,60.695 L17.639,60.695 C11.991,60.695 7.39,65.291 7.39,70.941 L7.39,75.653 L10.204,75.653 L10.204,70.941 C10.204,66.839 13.537,63.503 17.639,63.503 L48.597,63.503 L48.597,75.649 L51.412,75.649 L51.412,63.507 L82.365,63.507 C86.462,63.507 89.798,66.843 89.798,70.945 z M49.962,25.185 C52.988,25.185 55.449,27.642 55.449,30.674 C55.449,33.705 52.988,36.164 49.962,36.164 C46.928,36.164 44.471,33.706 44.471,30.674 C44.471,27.641 46.928,25.185 49.962,25.185 z M44.495,45.04 L44.05,45.04 L43.699,50.518 C42.033,49.801 41,48.605 39,47.375 L39,45.231 C39,41.125 42.786,38.04 46.893,38.04 L53.025,38.04 C57.135,38.04 60,41.125 60,45.231 L60,47.377 C59,48.609 57.43,49.801 55.766,50.518 L55.872,45.04 L55.428,45.04 L55.298,50.786 C53.634,51.407 51.841,51.674 49.961,51.674 C48.081,51.674 46.289,51.453 44.625,50.832 L44.495,45.04 z" fill="#FFFFFF"/>
      <path d="M86.668,82.228 C86.668,84.753 88.716,86.806 91.247,86.806 C93.771,86.806 95.822,84.753 95.822,82.228 C95.822,79.699 93.771,77.65 91.247,77.652 C88.716,77.651 86.668,79.7 86.668,82.228 z" fill="#FFFFFF"/>
      <path d="M93.801,88.167 L88.69,88.167 C85.266,88.167 82.494,90.94 82.494,94.364 L82.494,100 L86.188,100 L86.319,93.899 L86.688,93.899 L86.826,100 L95.673,100 L95.808,93.899 L96.177,93.899 L96.312,100 L100,100 L100,94.364 C100,90.94 97.229,88.167 93.801,88.167 z" fill="#FFFFFF"/>
      <path d="M54.577,82.228 C54.577,79.699 52.527,77.65 50.002,77.652 C47.471,77.652 45.423,79.701 45.423,82.228 C45.423,84.753 47.471,86.806 50.002,86.806 C52.527,86.806 54.577,84.753 54.577,82.228 z" fill="#FFFFFF"/>
      <path d="M52.557,88.167 L47.445,88.167 C44.02,88.167 41.247,90.94 41.247,94.364 L41.247,100 L44.943,100 L45.073,93.899 L45.444,93.899 L45.579,100 L54.427,100 L54.561,93.899 L54.932,93.899 L55.065,100 L58.756,100 L58.756,94.364 C58.755,90.94 55.982,88.167 52.557,88.167 z" fill="#FFFFFF"/>
      <path d="M13.33,82.228 C13.33,84.756 11.281,86.805 8.753,86.805 C6.225,86.805 4.176,84.756 4.176,82.228 C4.176,79.7 6.225,77.651 8.753,77.651 C11.281,77.651 13.33,79.7 13.33,82.228 z" fill="#FFFFFF"/>
      <path d="M11.309,88.167 L6.197,88.167 C2.772,88.167 0,90.94 0,94.364 L0,100 L3.696,100 L3.826,93.899 L4.196,93.899 L4.332,100 L13.179,100 L13.313,93.899 L13.683,93.899 L13.817,100 L17.509,100 L17.509,94.364 C17.508,90.94 14.736,88.167 11.309,88.167 z" fill="#FFFFFF"/>
    </g>
  </g>
  <defs/>
</svg>
