<?xml version="1.0" encoding="UTF-8"?>
<!DOCTYPE svg PUBLIC "-//W3C//DTD SVG 1.1//EN" "http://www.w3.org/Graphics/SVG/1.1/DTD/svg11.dtd">
<svg version="1.1" xmlns="http://www.w3.org/2000/svg" xmlns:xlink="http://www.w3.org/1999/xlink" x="0px" y="0px" width="100" height="100" viewBox="0, 0, 100, 100">
  <g id="Layer 1">
    <g>
      <path d="M28.413,51.051 C17.958,51.051 9.452,42.544 9.452,32.089 L9.452,30.513 C9.452,20.058 17.958,11.552 28.413,11.552 L32.673,11.552 L32.673,9.452 L28.413,9.452 C16.8,9.452 7.351,18.9 7.351,30.514 L7.351,32.09 C7.351,43.703 16.799,53.152 28.413,53.152 L34.797,53.152 L36.907,51.052 L28.413,51.052 z" fill="#FFFFFF"/>
      <path d="M30.487,92.648 L28.413,92.648 C17.958,92.648 9.452,84.143 9.452,73.687 C9.452,73.107 8.982,72.637 8.401,72.637 C7.821,72.637 7.351,73.107 7.351,73.687 C7.351,85.3 16.799,94.749 28.413,94.749 L30.487,94.749 C30.429,94.407 30.393,94.058 30.393,93.699 C30.393,93.34 30.429,92.991 30.487,92.648 z" fill="#FFFFFF"/>
      <path d="M71.587,51.057 L64.384,51.057 L62.307,53.158 L71.587,53.158 C82.043,53.158 90.549,61.664 90.549,72.12 L90.549,73.688 C90.549,84.144 82.043,92.649 71.587,92.649 L68.988,92.649 C69.045,92.992 69.082,93.34 69.082,93.7 C69.082,94.058 69.045,94.408 68.988,94.75 L71.587,94.75 C83.2,94.75 92.649,85.302 92.649,73.688 L92.649,72.12 C92.648,60.506 83.2,51.057 71.587,51.057 z" fill="#FFFFFF"/>
      <path d="M59.01,65.472 C59.01,65.472 56.747,67.72 55.865,68.598 C54.984,69.47 55.733,70.229 55.733,70.229 C55.733,70.229 56.234,70.727 56.983,71.485 C57.736,72.243 60.997,71.5 60.997,71.5 L63.001,73.514 C63.001,73.514 72.421,82.996 73.232,83.808 C74.052,84.63 76.495,84.573 77.249,83.823 C78.007,83.075 79.268,81.821 79.268,81.821 C79.268,81.821 80.528,80.575 81.281,79.821 C82.032,79.069 82.106,76.624 81.293,75.806 C80.48,74.985 71.056,65.509 71.056,65.509 L69.058,63.495 C69.058,63.495 69.821,60.235 69.071,59.482 C68.322,58.721 67.817,58.22 67.817,58.22 C67.817,58.22 67.07,57.465 66.186,58.336 C65.307,59.215 63.041,61.47 63.041,61.47 L58.554,56.953 L54.559,60.991 L59.01,65.472 z" fill="#FFFFFF"/>
      <path d="M34.888,33.135 L31.895,28.112 L27.885,24.083 L20.123,19.797 L18.862,21.042 L17.602,22.297 L21.845,30.089 L25.85,34.118 L30.859,37.14 L40.815,47.16 L44.841,43.152 z" fill="#FFFFFF"/>
      <path d="M72.107,43.248 C72.243,43.112 72.352,42.951 72.433,42.775 L81.787,22.157 C82.069,21.536 81.936,20.814 81.459,20.331 C81.457,20.329 81.457,20.329 81.457,20.329 C80.978,19.851 80.254,19.716 79.636,19.992 C79.636,19.992 58.258,29.763 58.16,29.894 L44.841,43.152 L40.815,47.16 L36.907,51.051 L34.797,53.151 L18.021,69.85 C17.384,70.482 17.381,71.516 18.014,72.153 L22.033,76.196 C22.038,76.2 22.039,76.207 22.045,76.212 C22.049,76.217 22.054,76.217 22.061,76.225 L25.705,79.886 C25.709,79.891 25.712,79.898 25.717,79.903 L25.719,79.906 C25.724,79.911 25.731,79.913 25.734,79.915 L29.646,83.846 C29.646,83.846 29.646,83.846 29.648,83.849 C29.655,83.856 29.664,83.865 29.672,83.872 C30.309,84.509 31.34,84.514 31.979,83.874 C32.06,83.794 32.126,83.708 32.188,83.613 L54.56,60.993 L58.555,56.955 L62.309,53.159 L64.386,51.058 L72.107,43.248 z M68.828,28.405 C69.012,29.572 69.475,30.592 70.295,31.411 C71.191,32.307 72.303,32.806 73.244,33.091 L69.76,40.772 L61.086,31.87 L68.828,28.405 z M21.472,71.009 L38.332,54.23 L51.334,41.291 L57.946,34.71 C58.115,34.964 58.31,35.216 58.554,35.461 C58.887,35.793 59.237,36.039 59.586,36.235 L52.942,42.9 L39.992,55.893 L23.199,72.741 L21.472,71.009 z M25.497,75.054 L42.298,58.198 L55.248,45.205 L61.834,38.597 C62.001,38.854 62.195,39.106 62.44,39.35 C62.445,39.355 62.45,39.36 62.452,39.362 C62.704,39.613 62.96,39.808 63.22,39.982 L56.633,46.589 L43.681,59.58 L26.873,76.439 L25.497,75.054 z M30.796,80.382 L29.173,78.749 L45.986,61.885 L58.937,48.895 L65.517,42.295 C65.691,42.554 65.881,42.816 66.13,43.065 C66.132,43.067 66.138,43.072 66.142,43.077 C66.424,43.36 66.717,43.58 67.012,43.766 L60.447,50.404 L47.547,63.446 L30.796,80.382 z" fill="#FFFFFF"/>
      <path d="M68.988,92.648 C68.486,89.669 65.902,87.397 62.781,87.397 L59.364,87.397 L59.364,100 L62.781,100 C65.902,100 68.486,97.729 68.988,94.749 C69.045,94.407 69.082,94.058 69.082,93.699 C69.082,93.34 69.045,92.991 68.988,92.648 z" fill="#FFFFFF"/>
      <path d="M52.021,87.397 L56.212,87.397 L56.212,100 L52.021,100 z" fill="#FFFFFF"/>
      <path d="M45.586,87.397 L46.704,87.397 L46.704,100 L45.586,100 z" fill="#FFFFFF"/>
      <path d="M43.486,87.397 L36.694,87.397 C33.573,87.397 30.988,89.669 30.487,92.648 C30.429,92.991 30.393,93.339 30.393,93.699 C30.393,94.057 30.43,94.407 30.487,94.749 C30.988,97.728 33.572,100 36.694,100 L43.486,100 L43.486,87.397 z" fill="#FFFFFF"/>
      <path d="M48.804,87.397 L49.922,87.397 L49.922,100 L48.804,100 z" fill="#FFFFFF"/>
      <path d="M42.153,0.052 C37.192,0.545 33.246,4.49 32.754,9.451 L42.153,9.451 L42.153,0.052 z" fill="#FFFFFF"/>
      <path d="M32.753,11.552 C33.246,16.513 37.191,20.459 42.152,20.951 L42.152,11.552 L32.753,11.552 z" fill="#FFFFFF"/>
      <path d="M44.253,21.003 L56.272,21.003 C62.071,21.003 66.773,16.301 66.773,10.501 C66.773,4.702 62.071,-0 56.272,-0 L44.253,-0 L44.253,21.003 z" fill="#FFFFFF"/>
    </g>
  </g>
  <defs/>
</svg>
