<?xml version="1.0" encoding="UTF-8"?>
<!DOCTYPE svg PUBLIC "-//W3C//DTD SVG 1.1//EN" "http://www.w3.org/Graphics/SVG/1.1/DTD/svg11.dtd">
<svg version="1.1" xmlns="http://www.w3.org/2000/svg" xmlns:xlink="http://www.w3.org/1999/xlink" x="0px" y="0px" width="170.8" height="65.45" viewBox="0, 0, 488, 187">
  <g id="Layer 1">
    <g>
      <path d="M127,8.205 C151.477,28.606 142.962,88.021 120.312,110.672 C106.457,124.526 87.9,140.461 66.204,137.433 C47.801,134.865 48.419,111.956 54.991,98.746 C60.072,88.536 51.789,90.119 51.978,79.316 C52.297,61.056 76.971,44.034 92.357,38.354 C100.101,35.495 108.782,34.839 105.428,38.194 C102.434,41.188 89.258,46.582 84.69,49.944 C75.284,56.865 49.052,73.114 63.072,87.134 C69.966,80.885 89.657,76.56 91.435,83.977 C94.636,97.334 65.721,98.237 65.721,98.237 C58.851,102.433 54.884,120.513 61.454,126.411 C71.651,135.564 87.082,126.342 96.198,120.254 C125.34,100.792 135.145,76.073 132.823,42.587 C130.427,8.007 102.193,2.483 72.796,15.321 C27.162,35.25 -6.898,106.223 18.798,152.636 C36.359,184.355 70.408,182.312 99.198,167.739 C114.837,159.823 160.155,126.251 159.496,124.805 C161.943,130.174 137.702,149.916 134.544,152.648 C118.622,166.426 100.001,178.759 79.34,183.881 C46.159,192.107 13.607,176.124 4.72,140.425 C-3.17,108.727 9.464,67.826 28.315,42.411 C41.105,25.169 59.319,9.374 80.598,4.171 C94.037,0.884 115.419,-1.448 127,8.205 z M81.236,84.941 C77.905,85.343 77.25,85.284 73.959,86.259 C72.074,86.818 69.441,87.785 67.779,88.959 C67.171,89.388 66.65,89.944 66.201,90.538 C65.746,91.14 66.017,92.082 66.515,92.54 C66.762,92.768 67.076,92.922 67.392,93.04 C69.468,93.811 72.669,93.26 74.653,92.863 C77.061,92.382 79.942,91.502 82.189,90.483 C82.938,90.143 86.945,88.37 86.508,86.645 C86.474,86.51 86.432,86.37 86.347,86.261 C86.17,86.032 85.988,85.785 85.734,85.648 C85.252,85.386 84.702,85.275 84.185,85.089 z" fill="#315180"/>
      <g>
        <text transform="matrix(1, 0, 0, 1, 325.274, 99.5)">
          <tspan x="-164.394" y="5.5" font-family="Syncopate-Bold" font-size="34" fill="#315180">technology</tspan>
        </text>
        <text transform="matrix(1, 0, 0, 1, 325.063, 44.5)">
          <tspan x="-164.394" y="5.5" font-family="Syncopate-Bold" font-size="34" fill="#315180">elgin</tspan>
        </text>
        <text transform="matrix(1, 0, 0, 1, 325.274, 156.5)">
          <tspan x="-164.394" y="5.5" font-family="Syncopate-Bold" font-size="34" fill="#315180">center</tspan>
        </text>
      </g>
    </g>
  </g>
  <defs/>
</svg>
