<?xml version="1.0" encoding="UTF-8"?>
<!DOCTYPE svg PUBLIC "-//W3C//DTD SVG 1.1//EN" "http://www.w3.org/Graphics/SVG/1.1/DTD/svg11.dtd">
<svg version="1.1" xmlns="http://www.w3.org/2000/svg" xmlns:xlink="http://www.w3.org/1999/xlink" x="0px" y="0px" width="56.35" height="65.45" viewBox="0, 0, 161, 187">
  <g id="Layer 1">
    <path d="M126.331,8.205 C150.808,28.606 142.293,88.021 119.643,110.672 C105.788,124.526 87.231,140.461 65.535,137.433 C47.132,134.865 47.75,111.956 54.322,98.746 C59.403,88.536 51.12,90.119 51.309,79.316 C51.628,61.056 76.302,44.034 91.688,38.354 C99.432,35.495 108.113,34.839 104.759,38.194 C101.765,41.188 88.589,46.582 84.021,49.944 C74.615,56.865 48.383,73.114 62.403,87.134 C69.297,80.885 88.988,76.56 90.766,83.977 C93.967,97.334 65.052,98.237 65.052,98.237 C58.182,102.433 54.215,120.513 60.785,126.411 C70.982,135.564 86.413,126.342 95.529,120.254 C124.671,100.792 134.476,76.073 132.154,42.587 C129.758,8.007 101.524,2.483 72.127,15.321 C26.493,35.25 -7.567,106.223 18.129,152.636 C35.69,184.355 69.739,182.312 98.529,167.739 C114.168,159.823 159.486,126.251 158.827,124.805 C161.274,130.174 137.033,149.916 133.875,152.648 C117.953,166.426 99.332,178.759 78.671,183.881 C45.49,192.107 12.938,176.124 4.051,140.425 C-3.839,108.727 8.795,67.826 27.646,42.411 C40.436,25.169 58.65,9.374 79.929,4.171 C93.368,0.884 114.75,-1.448 126.331,8.205 z M80.568,84.941 C77.236,85.343 76.581,85.284 73.29,86.259 C71.405,86.818 68.772,87.785 67.11,88.959 C66.502,89.388 65.981,89.944 65.533,90.538 C65.077,91.14 65.348,92.082 65.846,92.54 C66.094,92.768 66.408,92.922 66.723,93.04 C68.799,93.811 72,93.26 73.985,92.863 C76.393,92.382 79.273,91.502 81.52,90.483 C82.269,90.143 86.276,88.37 85.839,86.645 C85.805,86.51 85.764,86.37 85.679,86.261 C85.501,86.032 85.319,85.785 85.065,85.648 C84.583,85.386 84.033,85.275 83.517,85.089 z" fill="#325180"/>
  </g>
  <defs/>
</svg>
