<?xml version="1.0" encoding="UTF-8"?>
<!DOCTYPE svg PUBLIC "-//W3C//DTD SVG 1.1//EN" "http://www.w3.org/Graphics/SVG/1.1/DTD/svg11.dtd">
<svg version="1.1" xmlns="http://www.w3.org/2000/svg" xmlns:xlink="http://www.w3.org/1999/xlink" x="0px" y="0px" width="56.35" height="65.45" viewBox="0, 0, 161, 187">
  <g id="Layer 1">
    <path d="M63.049,87.304 C69.943,81.055 89.634,76.73 91.412,84.147 C94.613,97.505 65.698,98.408 65.698,98.408 C58.828,102.604 54.861,120.684 61.431,126.581 C71.628,135.734 87.059,126.512 96.175,120.424 C125.317,100.963 135.122,76.243 132.8,42.757 C130.404,8.177 102.17,2.653 72.773,15.491 C27.139,35.42 -6.921,106.394 18.775,152.807 C36.336,184.525 70.385,182.482 99.175,167.91 C114.814,159.993 160.132,126.422 159.473,124.976 C161.921,130.344 137.679,150.087 134.521,152.818 C118.599,166.596 99.978,178.93 79.317,184.051 C46.136,192.277 13.584,176.294 4.697,140.596 C-3.193,108.897 9.441,67.996 28.292,42.581 C41.082,25.339 59.296,9.544 80.575,4.341 C94.014,1.054 115.396,-1.278 126.977,8.375 C151.454,28.776 142.939,88.191 120.289,110.842 C106.434,124.697 87.877,140.632 66.181,137.604 C47.778,135.035 48.396,112.126 54.968,98.916 C60.049,88.706 51.766,90.289 51.955,79.486 C52.274,61.226 76.948,44.204 92.334,38.524 C100.078,35.666 108.759,35.009 105.405,38.364 C102.411,41.358 89.235,46.752 84.667,50.114 C75.261,57.035 49.029,73.285 63.049,87.304" fill="#325180"/>
    <path d="M61.286,77.633 C61.286,73.415 80.657,68.562 81.81,72.944 C82.806,76.728 61.286,82.966 61.286,77.633" fill="#FFFFFE"/>
  </g>
  <defs/>
</svg>
