<?xml version="1.0" encoding="UTF-8"?>
<!DOCTYPE svg PUBLIC "-//W3C//DTD SVG 1.1//EN" "http://www.w3.org/Graphics/SVG/1.1/DTD/svg11.dtd">
<svg version="1.1" xmlns="http://www.w3.org/2000/svg" xmlns:xlink="http://www.w3.org/1999/xlink" x="0px" y="0px" width="184.827" height="62" viewBox="0, 0, 184.827, 62">
  <g id="color_logo_4">
    <g>
      <path d="M73.492,62 C71.021,62 69.768,61.347 69.768,60.06 C69.768,59.383 70.221,58.858 70.6,58.536 L70.733,58.424 L70.641,58.274 C70.516,58.068 70.451,57.805 70.451,57.489 C70.451,56.948 70.726,56.416 71.294,55.865 L71.495,55.672 L71.25,55.539 C70.458,55.111 70.038,54.451 70.038,53.625 C70.038,52.085 71.43,51.091 73.582,51.091 C74.352,51.091 75.041,51.225 75.631,51.487 L75.678,51.508 L78.097,51.339 L78.039,52.506 L76.856,52.506 L76.956,52.78 C77.06,53.063 77.111,53.35 77.111,53.627 C77.111,55.11 75.758,56.034 73.581,56.034 C73.189,56.034 72.802,55.999 72.428,55.933 L72.269,55.906 L72.206,56.054 C72.16,56.16 72.138,56.276 72.138,56.407 C72.138,56.998 72.738,56.998 72.963,56.998 L75.896,56.998 C77.419,56.998 78.226,57.809 78.226,59.34 C78.225,60.93 76.324,62 73.492,62 z M71.473,59.081 C71.367,59.311 71.311,59.551 71.311,59.787 C71.311,60.828 72.532,60.961 73.596,60.961 C75.257,60.961 76.099,60.594 76.099,59.864 C76.099,59.359 75.78,59.068 75.223,59.068 L72.586,59.068 C72.305,59.068 71.998,59.033 71.699,58.969 L71.54,58.934 L71.473,59.081 z M73.546,52.374 C72.844,52.374 72.488,52.833 72.488,53.74 C72.488,54.617 72.896,55.121 73.609,55.121 C74.297,55.121 74.691,54.617 74.691,53.74 C74.692,52.551 73.973,52.374 73.546,52.374 z" fill="#FFFFFF"/>
      <path d="M84.747,57.917 C84.768,57.213 84.831,54.863 84.831,52.719 C84.831,51.038 84.737,48.277 84.71,47.48 C85.132,47.5 85.575,47.503 85.989,47.503 C86.654,47.503 87.245,47.485 87.552,47.478 C87.51,48.293 87.368,51.151 87.368,52.772 L87.368,53.849 C87.367,55.42 87.366,55.832 87.415,57.917 L84.747,57.917 z" fill="#FFFFFF"/>
      <path d="M96.887,58.149 C95.469,58.149 94.688,57.231 94.688,55.563 C94.688,55.138 94.693,54.572 94.701,53.982 C94.714,52.969 94.724,51.926 94.708,51.321 L97.327,51.321 C97.321,51.56 97.314,51.846 97.307,52.154 C97.286,52.937 97.266,53.869 97.266,54.605 C97.266,55.314 97.266,56.629 98.412,56.629 C99.496,56.629 99.496,55.261 99.496,54.605 C99.496,53.663 99.445,52.338 99.401,51.32 L102.103,51.32 C102.082,52.023 102.02,54.373 102.02,56.516 C102.02,56.947 102.06,57.355 102.132,57.915 L99.566,57.915 L99.466,56.896 L99.073,56.841 C98.732,57.722 98.016,58.149 96.887,58.149 z" fill="#FFFFFF"/>
      <path d="M112.674,58.149 C110.228,58.149 108.988,56.967 108.988,54.631 C108.988,52.379 110.313,51.088 112.624,51.088 C114.489,51.088 115.561,51.876 115.561,53.248 C115.561,54.588 114.257,55.188 112.964,55.188 C112.607,55.188 112.259,55.143 111.925,55.053 L111.669,54.985 L111.669,55.253 C111.669,56.241 112.15,56.786 113.023,56.786 C113.738,56.786 114.484,56.591 115.298,56.187 L115.74,57.484 C115.061,57.908 113.959,58.149 112.674,58.149 z M112.957,52.335 C112.166,52.335 111.681,53.046 111.628,54.286 L111.62,54.457 L111.786,54.494 C111.908,54.521 112.101,54.555 112.326,54.555 L112.326,54.555 C112.701,54.555 113.029,54.462 113.264,54.285 C113.582,54.051 113.743,53.684 113.743,53.197 C113.742,52.448 113.25,52.335 112.957,52.335 z" fill="#FFFFFF"/>
    </g>
    <g>
      <path d="M0.001,9.03 L0.001,10.456 L8.667,10.456 C15.171,10.574 22.025,11.938 22.025,18.908 C22.025,22.996 19.494,25.646 17.391,26.658 C18.598,29.033 20.234,31.214 22.57,31.214 C23.661,31.214 24.128,31.059 24.128,31.059 L23.31,38.108 C23.31,38.108 22.336,38.264 20.312,38.264 C14.86,38.264 11.706,33.472 10.225,28.955 C9.018,29.15 8.201,29.189 8.201,29.189 C8.241,32.07 8.28,34.174 8.28,37.564 L0.001,37.564 L0.001,39.391 L25.684,39.391 L25.684,9.03 L0.001,9.03 z" fill="#FFFFFF"/>
      <path d="M13.225,19.414 C13.225,15.793 9.992,16.026 8.201,16.105 C8.124,18.714 8.201,21.909 8.201,23.972 C9.952,23.932 13.225,23.544 13.225,19.414 z" fill="#FFFFFF"/>
    </g>
    <g>
      <path d="M27.634,35.209 L27.634,41.458 L33.811,41.458 C30.831,40.509 28.614,38.534 27.634,35.209 z" fill="#FFFFFF"/>
      <path d="M41.398,26.619 C41.398,25.217 40.776,24.633 39.646,24.633 C37.31,24.633 36.375,27.165 36.258,29.931 C37.971,30.319 41.398,30.319 41.398,26.619 z" fill="#FFFFFF"/>
      <path d="M27.634,14.351 L27.634,26.794 C29.082,21.943 33.219,19.648 38.633,19.648 C44.708,19.648 48.096,22.335 48.096,26.773 C48.096,32.303 41.438,34.171 36.374,32.812 C36.374,34.758 37.036,36.821 39.841,36.821 C42.645,36.821 45.214,35.732 47.045,34.759 L48.759,39.784 C47.773,40.497 46.44,41.056 44.876,41.459 L53.318,41.459 L53.318,14.351 L27.634,14.351 z" fill="#FFFFFF"/>
    </g>
    <path d="M1.263,23.54 C1.263,31.341 0.278,35.481 0.001,36.577 L0.001,10.163 L0.362,10.163 C0.596,13.85 1.263,20.789 1.263,23.54 z" fill="#FFFFFF"/>
    <path d="M132.23,25.494 C132.23,31.016 131.143,35.399 130.834,36.321 L130.834,14.082 L131.238,14.082 C131.369,15.633 132.23,18.613 132.23,25.494 z" fill="#FFFFFF"/>
    <g>
      <g>
        <path d="M75.185,25.288 C73.47,26.553 70.16,27.371 70.16,30.11 C70.16,31.416 70.773,31.907 71.672,31.907 C73.716,31.906 74.858,28.68 75.185,25.288 z" fill="#FFFFFF"/>
        <path d="M60.396,31.375 C60.396,22.754 74.737,24.755 74.737,21.731 C74.737,20.302 73.552,19.484 71.673,19.484 C67.751,19.484 62.603,22.958 62.603,22.958 L60.846,17.198 C60.846,17.198 65.422,13.561 72.859,13.561 C78.192,13.561 81.35,15.165 82.716,17.967 L82.716,8.005 L55.768,8.005 L55.768,36.442 L63.557,36.442 C61.647,35.552 60.396,33.86 60.396,31.375 z" fill="#FFFFFF"/>
        <path d="M71.408,36.441 L75.513,36.441 L75.432,32.029 C74.729,33.601 73.776,35.442 71.408,36.441 z" fill="#FFFFFF"/>
      </g>
      <path d="M81.722,26.703 C81.722,31.637 82.111,35.543 82.712,36.639 L82.712,17.663 C82.711,17.663 81.722,20.563 81.722,26.703 z" fill="#FFFFFF"/>
    </g>
    <g>
      <path d="M101.099,29.758 C101.099,26.847 100.09,24.061 97.059,24.061 C94.354,24.061 93.343,26.322 93.343,29.758 C93.343,33.23 94.352,35.453 97.059,35.453 C100.09,35.451 101.099,32.706 101.099,29.758 z" fill="#FFFFFF"/>
      <g>
        <path d="M109.674,23.547 C109.689,34.24 110.923,38.468 111.311,39.816 L111.311,7.279 L110.802,7.279 C110.491,9.337 109.659,11.687 109.674,23.547 z" fill="#FFFFFF"/>
        <path d="M98.097,40.664 L101.925,40.664 C101.925,39.935 101.804,37.068 101.804,36.422 C101.308,37.937 100.113,39.698 98.097,40.664 z" fill="#FFFFFF"/>
        <path d="M94.612,18.042 C98.007,18.042 100.509,19.94 101.562,22.526 C101.458,17.288 101.087,9.401 100.983,7.278 L84.809,7.278 L84.809,27.667 C85.513,21.733 89.243,18.042 94.612,18.042 z" fill="#FFFFFF"/>
        <path d="M84.808,31.818 L84.808,40.664 L90.858,40.664 C87.56,39.333 85.334,36.22 84.808,31.818 z" fill="#FFFFFF"/>
      </g>
    </g>
    <path d="M115.958,37.562 C115.958,37.562 116.231,31.487 116.231,26.815 C116.231,22.492 115.842,16.455 115.842,16.455 C120.203,16.69 125.578,16.455 125.578,16.455 C125.578,16.455 125.109,22.569 125.109,27.009 C125.109,31.137 125.071,29.423 125.264,37.562 L115.958,37.562 L115.958,37.562 z" fill="#FFFFFF"/>
    <g>
      <path d="M142.362,20.434 C139.831,20.434 139.363,23.122 139.363,25.924 C139.363,29.158 139.52,33.87 139.637,36.439 L145.36,36.439 C145.398,33.987 145.554,29.272 145.554,25.924 C145.556,22.616 144.854,20.434 142.362,20.434 z" fill="#FFFFFF"/>
      <path d="M130.835,9.337 L130.835,15.334 L139.596,15.334 C139.558,16.62 139.521,17.865 139.481,18.956 C140.492,16.465 142.948,14.634 147.035,14.634 C152.177,14.634 154.551,17.749 154.551,22.384 C154.551,28.927 154.746,33.95 154.826,36.442 L156.52,36.442 L156.52,9.337 L130.835,9.337 z" fill="#FFFFFF"/>
    </g>
    <g>
      <path d="M167.246,37.109 C166.311,37.109 165.339,36.994 164.442,36.797 C164.168,37.381 164.014,38.004 164.014,38.665 C164.014,40.727 166.037,41.585 170.283,41.585 C174.373,41.585 177.216,40.806 177.216,38.898 C177.216,37.612 176.438,37.106 175.193,37.106 L167.246,37.109 L167.246,37.109 z" fill="#FFFFFF"/>
      <path d="M172.971,20.442 C172.971,18.338 172.192,16.938 170.13,16.938 C168.181,16.938 167.558,18.299 167.558,20.442 C167.558,22.544 168.378,23.985 170.324,23.985 C172.348,23.985 172.971,22.311 172.971,20.442 z" fill="#FFFFFF"/>
      <path d="M184.333,33.973 L184.333,15.938 L184.267,17.327 L180.995,17.327 C181.307,18.182 181.502,19.119 181.502,20.091 C181.502,24.842 177.295,27.959 170.248,27.959 C168.962,27.959 167.754,27.843 166.666,27.647 C166.548,27.919 166.508,28.193 166.508,28.464 C166.508,29.36 167.092,29.632 168.379,29.632 L177.217,29.632 C180.927,29.632 183.341,31.168 184.333,33.973 z" fill="#FFFFFF"/>
      <path d="M158.133,39.485 C158.133,37.227 159.575,35.512 160.861,34.422 C160.431,33.722 160.198,32.826 160.198,31.735 C160.198,29.554 161.522,27.763 162.923,26.401 C160.394,25.038 158.95,22.858 158.95,20.091 C158.95,15.223 163.274,11.835 170.246,11.835 L157.319,11.835 L157.319,45.914 L168.362,45.914 C161.25,45.612 158.133,43.261 158.133,39.485 z" fill="#FFFFFF"/>
      <path d="M184.333,12.548 L184.333,11.837 L170.245,11.837 C172.776,11.837 174.919,12.305 176.671,13.081 L184.333,12.548 z" fill="#FFFFFF"/>
      <path d="M171.413,45.914 L184.332,45.914 L184.332,39.796 C182.823,43.331 178.04,45.625 171.413,45.914 z" fill="#FFFFFF"/>
    </g>
    <path d="M122.835,14.409 C122.372,14.409 121.904,14.372 121.437,14.294 C119.183,13.925 117.208,12.701 115.877,10.847 C114.785,9.329 114.351,7.479 114.653,5.634 C114.955,3.79 115.957,2.173 117.474,1.082 C118.723,0.186 120.245,-0.173 121.762,0.078 C123.281,0.326 124.611,1.149 125.508,2.398 C126.252,3.431 126.545,4.693 126.341,5.949 C126.134,7.203 125.453,8.304 124.419,9.047 C122.644,10.323 120.156,9.92 118.878,8.14 C118.359,7.416 118.152,6.534 118.295,5.655 C118.44,4.777 118.918,4.006 119.64,3.485 C120.253,3.045 121.002,2.87 121.745,2.991 C122.489,3.114 123.142,3.518 123.583,4.131 L122.295,5.057 C121.894,4.503 121.12,4.376 120.564,4.775 C120.187,5.047 119.935,5.45 119.861,5.91 C119.786,6.372 119.893,6.834 120.167,7.214 C120.933,8.281 122.426,8.526 123.493,7.758 C124.182,7.263 124.638,6.529 124.773,5.691 C124.913,4.855 124.713,4.012 124.218,3.325 C123.569,2.421 122.605,1.822 121.506,1.643 C120.404,1.465 119.302,1.723 118.399,2.372 C117.225,3.215 116.453,4.466 116.217,5.892 C115.984,7.318 116.32,8.75 117.162,9.924 C118.248,11.434 119.857,12.432 121.691,12.733 C123.528,13.032 125.369,12.599 126.879,11.515 L127.804,12.803 C126.337,13.857 124.61,14.409 122.835,14.409 z" fill="#FFFFFF"/>
    <path d="M0.001,54.523 L64.114,54.523 L64.114,54.955 L0.001,54.955 z" fill="#FFFFFF"/>
    <path d="M120.711,54.523 L184.826,54.523 L184.826,54.955 L120.711,54.955 z" fill="#FFFFFF"/>
  </g>
  <defs/>
</svg>
